<?xml version="1.0" encoding="utf-8"?>
<!-- Generator: Adobe Illustrator 25.2.3, SVG Export Plug-In . SVG Version: 6.00 Build 0)  -->
<svg version="1.1" id="Layer_1" xmlns="http://www.w3.org/2000/svg" xmlns:xlink="http://www.w3.org/1999/xlink" x="0px" y="0px"
	 viewBox="0 0 135 131.8" style="enable-background:new 0 0 135 131.8;" xml:space="preserve">
<style type="text/css">
	.st0{fill:#BE1E2D;}
	.st1{fill:#FFFFFF;}
</style>
<g>
	<polygon class="st0" points="135,131.8 135,72.8 135,53.9 135,7.2 135,7.2 127.8,0 121.1,6.7 114.4,0 107.7,6.7 101,0 94.3,6.7 
		87.6,0 80.9,6.7 74.2,0 67.5,6.7 60.8,0 54.1,6.7 47.4,0 40.7,6.7 34,0 27.3,6.7 20.6,0 13.9,6.7 7.2,0 0,7.2 0,7.2 0,53.6 0,53.9 
		0,57.7 0,72.8 0,131.8 	"/>
	<path class="st1" d="M69.4,27.8c-0.6,0-1.3-0.1-1.9-0.1c-0.7,0-1.3,0-1.9,0.1c-27.7,1.3-49.1,29.6-50,30.9v4.1
		c0.9,1.2,22.4,29.6,50,30.9c0.6,0,1.3,0.1,1.9,0.1c0.7,0,1.3,0,1.9-0.1c27.7-1.3,49.1-29.6,50-30.9v-4.1
		C118.6,57.4,97.1,29.1,69.4,27.8z M69.1,45.2l7.2,19.3H58.8l7.2-19.3H69.1z M37.9,75.2c-7.2-5.5-12.7-11.5-15.3-14.5
		c2.6-3.1,8-9.1,15.3-14.5c-2.2,4.4-3.4,9.3-3.4,14.5S35.7,70.9,37.9,75.2z M51.4,64.5v0.2l-4.5,12.1c-3.5-4.4-5.6-10-5.6-16
		c0-12.7,9.1-23.2,21-25.6L51.4,64.5L51.4,64.5z M67.5,86.8c-5.7,0-10.9-1.8-15.2-4.9l3.9-10.6h22.5l3.9,10.6
		C78.4,85,73.2,86.8,67.5,86.8z M88.1,76.8l-4.5-12.2v-0.1h-0.1L72.6,35.1c12,2.4,21,13,21,25.6C93.6,66.8,91.5,72.3,88.1,76.8z
		 M97.1,75.2c2.2-4.4,3.4-9.3,3.4-14.5s-1.2-10.1-3.4-14.5c7.2,5.5,12.7,11.5,15.3,14.5C109.8,63.8,104.3,69.8,97.1,75.2z"/>
</g>
</svg>
