<?xml version="1.0" encoding="utf-8"?>
<!-- Generator: Adobe Illustrator 25.2.3, SVG Export Plug-In . SVG Version: 6.00 Build 0)  -->
<svg version="1.1" id="Layer_1" xmlns="http://www.w3.org/2000/svg" xmlns:xlink="http://www.w3.org/1999/xlink" x="0px" y="0px"
	 viewBox="0 0 104 65.9" style="enable-background:new 0 0 104 65.9;" xml:space="preserve">
<style type="text/css">
	.st0{fill:#BE1E2D;}
</style>
<path class="st0" d="M53.9,0.1C53.3,0,52.6,0,52,0c-0.7,0-1.3,0-1.9,0.1C22.4,1.4,0.9,29.7,0,30.9V35c0.9,1.2,22.4,29.6,50,30.9
	c0.6,0,1.3,0.1,1.9,0.1c0.7,0,1.3,0,1.9-0.1c27.7-1.3,49.1-29.6,50-30.9v-4.1C103.1,29.7,81.6,1.4,53.9,0.1z M53.6,17.5l7.2,19.3
	H43.3l7.2-19.3H53.6z M22.4,47.5C15.2,42,9.7,36,7.1,33c2.6-3.1,8-9.1,15.3-14.5C20.2,22.8,19,27.8,19,33S20.2,43.1,22.4,47.5z
	 M35.9,36.7v0.2L31.4,49c-3.5-4.4-5.6-10-5.6-16c0-12.7,9.1-23.2,21-25.6L35.9,36.7L35.9,36.7z M52,59.1c-5.7,0-10.9-1.8-15.2-4.9
	l3.9-10.6h22.5l3.9,10.6C62.9,57.3,57.7,59.1,52,59.1z M72.6,49l-4.5-12.2v-0.1H68L57.1,7.3c12,2.4,21,13,21,25.6
	C78.1,39,76,44.6,72.6,49z M81.6,47.5C83.7,43.1,85,38.2,85,33s-1.2-10.1-3.4-14.5c7.2,5.5,12.7,11.5,15.3,14.5
	C94.3,36,88.8,42,81.6,47.5z"/>
</svg>
