<?xml version="1.0" encoding="utf-8"?>
<!-- Generator: Adobe Illustrator 25.3.1, SVG Export Plug-In . SVG Version: 6.00 Build 0)  -->
<svg version="1.1" id="Layer_1" xmlns="http://www.w3.org/2000/svg" xmlns:xlink="http://www.w3.org/1999/xlink" x="0px" y="0px"
	 viewBox="0 0 383.1 205.9" style="enable-background:new 0 0 383.1 205.9;" xml:space="preserve">
<style type="text/css">
	.st0{clip-path:url(#SVGID_2_);fill:#F3F4F4;}
	.st1{clip-path:url(#SVGID_2_);}
	.st2{fill:#A3A5A8;}
	.st3{fill:none;stroke:#A3A5A8;stroke-width:0.7182;stroke-miterlimit:10;}
	.st4{fill:none;stroke:#A3A5A8;stroke-width:0.7182;stroke-miterlimit:10;stroke-dasharray:2.4212,3.6318;}
	.st5{fill:#FFFFFF;}
	.st6{fill:none;stroke:#A3A5A8;stroke-width:0.3539;stroke-linecap:round;stroke-miterlimit:10;}
	.st7{fill:none;stroke:#A3A5A8;stroke-width:0.2514;stroke-linecap:round;stroke-miterlimit:10;}
	.st8{fill:none;stroke:#A3A5A8;stroke-width:0.3929;stroke-linecap:round;stroke-miterlimit:10;}
	.st9{fill:#F3F4F4;stroke:#A3A5A8;stroke-width:0.3929;stroke-linecap:round;stroke-miterlimit:10;}
	.st10{fill:#FFFFFF;stroke:#A3A5A8;stroke-width:0.6464;stroke-miterlimit:10;}
	.st11{fill:none;stroke:#A3A5A8;stroke-width:0.3465;stroke-miterlimit:10;}
	.st12{fill:none;stroke:#A3A5A8;stroke-width:0.4136;stroke-miterlimit:10;}
	.st13{fill:none;stroke:#A3A5A8;stroke-width:0.838;stroke-linecap:round;stroke-miterlimit:10;}
	.st14{fill:#FFFFFF;stroke:#A3A5A8;stroke-width:0.3586;stroke-linecap:round;stroke-miterlimit:10;}
	.st15{fill:#FFFFFF;stroke:#A3A5A8;stroke-width:0.838;stroke-linecap:round;stroke-miterlimit:10;}
	.st16{fill:#FFFFFF;stroke:#A3A5A8;stroke-width:0.7172;stroke-linecap:round;stroke-miterlimit:10;}
	.st17{fill:#F3F4F4;stroke:#A3A5A8;stroke-width:0.7172;stroke-linecap:round;stroke-miterlimit:10;}
	.st18{fill:none;stroke:#A3A5A8;stroke-width:0.3586;stroke-linecap:round;stroke-miterlimit:10;}
	.st19{fill:none;stroke:#A3A5A8;stroke-width:0.3586;stroke-linecap:round;stroke-linejoin:round;stroke-miterlimit:10;}
	.st20{fill:none;stroke:#A3A5A8;stroke-width:0.2179;stroke-linecap:round;stroke-linejoin:round;stroke-miterlimit:10;}
	.st21{fill:#A3A5A8;stroke:#A3A5A8;stroke-width:0.2179;stroke-linecap:round;stroke-linejoin:round;stroke-miterlimit:10;}
	.st22{clip-path:url(#SVGID_4_);}
	.st23{fill:#F3F4F4;}
	.st24{fill:#FFFFFF;stroke:#A3A5A8;stroke-width:0.8272;stroke-miterlimit:10;}
	.st25{fill:none;stroke:#A3A5A8;stroke-width:0.838;stroke-linejoin:round;stroke-miterlimit:10;}
	.st26{fill:none;stroke:#A3A5A8;stroke-width:0.838;stroke-linecap:round;stroke-linejoin:round;stroke-miterlimit:10;}
	.st27{fill:#A3A5A8;stroke:#A3A5A8;stroke-width:0.838;stroke-linejoin:round;stroke-miterlimit:10;}
	.st28{fill:none;stroke:#FFFFFF;stroke-width:2.068;stroke-linecap:round;stroke-linejoin:round;stroke-miterlimit:10;}
	.st29{fill:#FFFFFF;stroke:#A3A5A8;stroke-width:0.4136;stroke-linecap:round;stroke-miterlimit:10;}
	.st30{fill:#A3A5A8;stroke:#A3A5A8;stroke-width:0.838;stroke-linecap:round;stroke-miterlimit:10;}
	.st31{fill:#F3F4F4;stroke:#A3A5A8;stroke-width:0.8272;stroke-linecap:round;stroke-miterlimit:10;}
	.st32{fill:#A3A5A8;stroke:#A3A5A8;stroke-width:0.8272;stroke-linecap:round;stroke-miterlimit:10;}
	.st33{fill:#FFFFFF;stroke:#A3A5A8;stroke-width:0.5611;stroke-linejoin:round;stroke-miterlimit:10;}
	.st34{fill:#F3F4F4;stroke:#A3A5A8;stroke-width:0.4136;stroke-linecap:round;stroke-miterlimit:10;}
	.st35{fill:#A3A5A8;stroke:#F3F4F4;stroke-width:0.4136;stroke-linecap:round;stroke-miterlimit:10;}
</style>
<g>
	<defs>
		<rect id="SVGID_1_" width="383.1" height="205.9"/>
	</defs>
	<clipPath id="SVGID_2_">
		<use xlink:href="#SVGID_1_"  style="overflow:visible;"/>
	</clipPath>
	<rect class="st0" width="383.1" height="205.9"/>
	<rect x="-8.8" y="-4.7" class="st0" width="400.7" height="215.4"/>
	<g class="st1">
		<circle class="st2" cx="84.5" cy="107.1" r="0.5"/>
		<circle class="st2" cx="84.5" cy="96.5" r="0.5"/>
		<circle class="st2" cx="84.5" cy="86" r="0.5"/>
		<circle class="st2" cx="84.5" cy="75.5" r="0.5"/>
		<circle class="st2" cx="84.5" cy="65" r="0.5"/>
		<circle class="st2" cx="84.5" cy="54.4" r="0.5"/>
		<circle class="st2" cx="84.5" cy="43.9" r="0.5"/>
		<circle class="st2" cx="84.5" cy="33.4" r="0.5"/>
		<circle class="st2" cx="74" cy="107.1" r="0.5"/>
		<circle class="st2" cx="74" cy="96.5" r="0.5"/>
		<circle class="st2" cx="74" cy="86" r="0.5"/>
		<circle class="st2" cx="74" cy="75.5" r="0.5"/>
		<circle class="st2" cx="74" cy="65" r="0.5"/>
		<circle class="st2" cx="74" cy="54.4" r="0.5"/>
		<circle class="st2" cx="74" cy="43.9" r="0.5"/>
		<circle class="st2" cx="74" cy="33.4" r="0.5"/>
		<circle class="st2" cx="63.5" cy="107.1" r="0.5"/>
		<circle class="st2" cx="63.5" cy="96.5" r="0.5"/>
		<circle class="st2" cx="63.5" cy="86" r="0.5"/>
		<circle class="st2" cx="63.5" cy="75.5" r="0.5"/>
		<circle class="st2" cx="63.5" cy="65" r="0.5"/>
		<circle class="st2" cx="63.5" cy="54.4" r="0.5"/>
		<circle class="st2" cx="63.5" cy="43.9" r="0.5"/>
		<circle class="st2" cx="63.5" cy="33.4" r="0.5"/>
		<circle class="st2" cx="52.9" cy="107.1" r="0.5"/>
		<circle class="st2" cx="52.9" cy="96.5" r="0.5"/>
		<circle class="st2" cx="52.9" cy="86" r="0.5"/>
		<circle class="st2" cx="52.9" cy="75.5" r="0.5"/>
		<circle class="st2" cx="52.9" cy="65" r="0.5"/>
		<circle class="st2" cx="52.9" cy="54.4" r="0.5"/>
		<circle class="st2" cx="52.9" cy="43.9" r="0.5"/>
		<circle class="st2" cx="52.9" cy="33.4" r="0.5"/>
		<circle class="st2" cx="42.4" cy="107.1" r="0.5"/>
		<circle class="st2" cx="42.4" cy="96.5" r="0.5"/>
		<circle class="st2" cx="42.4" cy="86" r="0.5"/>
		<circle class="st2" cx="42.4" cy="75.5" r="0.5"/>
		<circle class="st2" cx="42.4" cy="65" r="0.5"/>
		<circle class="st2" cx="42.4" cy="54.4" r="0.5"/>
		<circle class="st2" cx="42.4" cy="43.9" r="0.5"/>
		<circle class="st2" cx="42.4" cy="33.4" r="0.5"/>
		<circle class="st2" cx="31.9" cy="107.1" r="0.5"/>
		<circle class="st2" cx="31.9" cy="96.5" r="0.5"/>
		<circle class="st2" cx="31.9" cy="86" r="0.5"/>
		<circle class="st2" cx="31.9" cy="75.5" r="0.5"/>
		<circle class="st2" cx="31.9" cy="65" r="0.5"/>
		<circle class="st2" cx="31.9" cy="54.4" r="0.5"/>
		<circle class="st2" cx="31.9" cy="43.9" r="0.5"/>
		<circle class="st2" cx="31.9" cy="33.4" r="0.5"/>
		<circle class="st2" cx="21.4" cy="107.1" r="0.5"/>
		<circle class="st2" cx="21.4" cy="96.5" r="0.5"/>
		<circle class="st2" cx="21.4" cy="86" r="0.5"/>
		<circle class="st2" cx="21.4" cy="75.5" r="0.5"/>
		<circle class="st2" cx="21.4" cy="65" r="0.5"/>
		<circle class="st2" cx="21.4" cy="54.4" r="0.5"/>
		<circle class="st2" cx="21.4" cy="43.9" r="0.5"/>
		<circle class="st2" cx="21.4" cy="33.4" r="0.5"/>
		<circle class="st2" cx="95.1" cy="107.1" r="0.5"/>
		<circle class="st2" cx="95.1" cy="96.5" r="0.5"/>
		<circle class="st2" cx="95.1" cy="86" r="0.5"/>
		<circle class="st2" cx="95.1" cy="75.5" r="0.5"/>
		<circle class="st2" cx="95.1" cy="65" r="0.5"/>
		<circle class="st2" cx="95.1" cy="54.4" r="0.5"/>
		<circle class="st2" cx="95.1" cy="43.9" r="0.5"/>
		<circle class="st2" cx="95.1" cy="33.4" r="0.5"/>
		<circle class="st2" cx="105.6" cy="107.1" r="0.5"/>
		<circle class="st2" cx="105.6" cy="96.5" r="0.5"/>
		<circle class="st2" cx="105.6" cy="86" r="0.5"/>
		<circle class="st2" cx="105.6" cy="75.5" r="0.5"/>
		<circle class="st2" cx="105.6" cy="65" r="0.5"/>
		<circle class="st2" cx="105.6" cy="54.4" r="0.5"/>
		<circle class="st2" cx="105.6" cy="43.9" r="0.5"/>
		<circle class="st2" cx="105.6" cy="33.4" r="0.5"/>
		<circle class="st2" cx="116.1" cy="107.1" r="0.5"/>
		<circle class="st2" cx="116.1" cy="96.5" r="0.5"/>
		<circle class="st2" cx="116.1" cy="86" r="0.5"/>
		<circle class="st2" cx="116.1" cy="75.5" r="0.5"/>
		<circle class="st2" cx="116.1" cy="65" r="0.5"/>
		<circle class="st2" cx="116.1" cy="54.4" r="0.5"/>
		<circle class="st2" cx="116.1" cy="43.9" r="0.5"/>
		<circle class="st2" cx="116.1" cy="33.4" r="0.5"/>
		<circle class="st2" cx="126.6" cy="107.1" r="0.5"/>
		<circle class="st2" cx="126.6" cy="96.5" r="0.5"/>
		<circle class="st2" cx="126.6" cy="86" r="0.5"/>
		<circle class="st2" cx="126.6" cy="75.5" r="0.5"/>
		<circle class="st2" cx="126.6" cy="65" r="0.5"/>
		<circle class="st2" cx="126.6" cy="54.4" r="0.5"/>
		<circle class="st2" cx="126.6" cy="43.9" r="0.5"/>
		<circle class="st2" cx="126.6" cy="33.4" r="0.5"/>
		<circle class="st2" cx="137.2" cy="107.1" r="0.5"/>
		<circle class="st2" cx="137.2" cy="96.5" r="0.5"/>
		<circle class="st2" cx="137.2" cy="86" r="0.5"/>
		<circle class="st2" cx="137.2" cy="75.5" r="0.5"/>
		<circle class="st2" cx="137.2" cy="65" r="0.5"/>
		<circle class="st2" cx="137.2" cy="54.4" r="0.5"/>
		<circle class="st2" cx="137.2" cy="43.9" r="0.5"/>
		<circle class="st2" cx="137.2" cy="33.4" r="0.5"/>
		<circle class="st2" cx="147.7" cy="107.1" r="0.5"/>
		<circle class="st2" cx="147.7" cy="96.5" r="0.5"/>
		<circle class="st2" cx="147.7" cy="86" r="0.5"/>
		<circle class="st2" cx="147.7" cy="75.5" r="0.5"/>
		<circle class="st2" cx="147.7" cy="65" r="0.5"/>
		<circle class="st2" cx="147.7" cy="54.4" r="0.5"/>
		<circle class="st2" cx="147.7" cy="43.9" r="0.5"/>
		<circle class="st2" cx="147.7" cy="33.4" r="0.5"/>
		<circle class="st2" cx="158.2" cy="107.1" r="0.5"/>
		<circle class="st2" cx="158.2" cy="96.5" r="0.5"/>
		<circle class="st2" cx="158.2" cy="86" r="0.5"/>
		<circle class="st2" cx="158.2" cy="75.5" r="0.5"/>
		<circle class="st2" cx="158.2" cy="65" r="0.5"/>
		<circle class="st2" cx="158.2" cy="54.4" r="0.5"/>
		<circle class="st2" cx="158.2" cy="43.9" r="0.5"/>
		<circle class="st2" cx="158.2" cy="33.4" r="0.5"/>
	</g>
	<g class="st1">
		<g>
			<line class="st3" x1="191.7" y1="205.8" x2="191.7" y2="204.6"/>
			<line class="st4" x1="191.7" y1="201" x2="191.7" y2="3"/>
			<line class="st3" x1="191.7" y1="1.2" x2="191.7" y2="0"/>
		</g>
	</g>
	<g class="st1">
		<path class="st5" d="M363.8,66.3v26.3l19.3,6.1v5.7L314,82v-5.1l69.1-22.3v5.7L363.8,66.3z M358.8,91V67.9l-36.4,11.5L358.8,91z"
			/>
		<path class="st5" d="M383.1,6.5c-1,0.3-2.2,0.6-3.5,0.8c-1.3,0.2-2.6,0.3-3.9,0.4c1.2,1,2.3,2.1,3.3,3.4c1,1.3,1.9,2.7,2.6,4.2
			c0.7,1.5,1.3,3.2,1.8,5c0.4,1.8,0.6,3.6,0.6,5.6c0,2.4-0.3,4.6-1,6.7c-0.7,2.1-1.7,3.9-2.9,5.4c-1.3,1.5-2.8,2.7-4.6,3.6
			c-1.8,0.9-3.8,1.3-6,1.3c-2.9,0-5.4-0.6-7.5-1.9c-2.1-1.3-3.7-3.1-5-5.3c-1.3-2.2-2.2-4.8-2.8-7.7c-0.6-2.9-0.9-6-0.9-9.2V7.7
			h-5.8c-1.9,0-3.6,0.4-5.1,1.1c-1.5,0.7-2.7,1.7-3.7,3c-1,1.3-1.7,2.7-2.3,4.5c-0.5,1.7-0.8,3.6-0.8,5.6c0,1.8,0.2,3.6,0.7,5.2
			s1.2,3.1,2,4.4c0.9,1.3,2,2.3,3.3,3.1c1.3,0.8,2.7,1.2,4.3,1.3l0,5.7c-2.2-0.1-4.2-0.7-6-1.7c-1.8-1.1-3.4-2.5-4.8-4.3
			c-1.3-1.8-2.4-3.9-3.2-6.3c-0.8-2.4-1.1-4.9-1.1-7.7c0-2.7,0.3-5.3,1-7.7c0.7-2.4,1.7-4.5,3.1-6.2c1.4-1.8,3.1-3.1,5.2-4.2
			c2.1-1,4.5-1.6,7.3-1.6h24.9c1.7,0,3.4-0.1,5.2-0.5c1.7-0.3,3.4-0.7,5-1.1l0.6,0V6.5z M379,25.2c0-2-0.2-3.9-0.7-5.7
			c-0.5-1.8-1.2-3.5-2.1-5c-0.9-1.5-2-2.9-3.2-4c-1.2-1.2-2.6-2.1-4.1-2.8h-11.2V18c0,2.5,0.2,4.9,0.6,7.2c0.4,2.3,1,4.4,1.9,6.1
			c0.9,1.8,2,3.2,3.5,4.2c1.5,1.1,3.3,1.6,5.5,1.6c1.6,0,2.9-0.3,4.2-0.9c1.2-0.6,2.3-1.5,3.2-2.6c0.9-1.1,1.5-2.3,2-3.8
			C378.8,28.5,379,26.9,379,25.2z"/>
	</g>
	<g class="st1">
		<g>
			<g>
				<line class="st6" x1="255.9" y1="12" x2="255.9" y2="14"/>
				<line class="st6" x1="256.9" y1="13" x2="254.8" y2="13"/>
			</g>
			<g>
				<line class="st6" x1="268.6" y1="12" x2="268.6" y2="14"/>
				<line class="st6" x1="269.6" y1="13" x2="267.5" y2="13"/>
			</g>
			<g>
				<line class="st6" x1="281.2" y1="12" x2="281.2" y2="14"/>
				<line class="st6" x1="282.3" y1="13" x2="280.2" y2="13"/>
			</g>
			<g>
				<line class="st6" x1="293.9" y1="12" x2="293.9" y2="14"/>
				<line class="st6" x1="294.9" y1="13" x2="292.9" y2="13"/>
			</g>
			<g>
				<line class="st6" x1="306.6" y1="12" x2="306.6" y2="14"/>
				<line class="st6" x1="307.6" y1="13" x2="305.5" y2="13"/>
			</g>
			<g>
				<line class="st6" x1="319.3" y1="12" x2="319.3" y2="14"/>
				<line class="st6" x1="320.3" y1="13" x2="318.2" y2="13"/>
			</g>
			<g>
				<line class="st6" x1="331.9" y1="12" x2="331.9" y2="14"/>
				<line class="st6" x1="333" y1="13" x2="330.9" y2="13"/>
			</g>
			<g>
				<line class="st6" x1="344.6" y1="12" x2="344.6" y2="14"/>
				<line class="st6" x1="345.6" y1="13" x2="343.6" y2="13"/>
			</g>
			<g>
				<line class="st6" x1="357.3" y1="12" x2="357.3" y2="14"/>
				<line class="st6" x1="358.3" y1="13" x2="356.3" y2="13"/>
			</g>
			<g>
				<line class="st6" x1="370" y1="12" x2="370" y2="14"/>
				<line class="st6" x1="371" y1="13" x2="368.9" y2="13"/>
			</g>
		</g>
		<g>
			<g>
				<line class="st6" x1="255.9" y1="24.6" x2="255.9" y2="26.7"/>
				<line class="st6" x1="256.9" y1="25.7" x2="254.8" y2="25.7"/>
			</g>
			<g>
				<line class="st6" x1="268.6" y1="24.6" x2="268.6" y2="26.7"/>
				<line class="st6" x1="269.6" y1="25.7" x2="267.5" y2="25.7"/>
			</g>
			<g>
				<line class="st6" x1="281.2" y1="24.6" x2="281.2" y2="26.7"/>
				<line class="st6" x1="282.3" y1="25.7" x2="280.2" y2="25.7"/>
			</g>
			<g>
				<line class="st6" x1="293.9" y1="24.6" x2="293.9" y2="26.7"/>
				<line class="st6" x1="294.9" y1="25.7" x2="292.9" y2="25.7"/>
			</g>
			<g>
				<line class="st6" x1="306.6" y1="24.6" x2="306.6" y2="26.7"/>
				<line class="st6" x1="307.6" y1="25.7" x2="305.5" y2="25.7"/>
			</g>
			<g>
				<line class="st6" x1="319.3" y1="24.6" x2="319.3" y2="26.7"/>
				<line class="st6" x1="320.3" y1="25.7" x2="318.2" y2="25.7"/>
			</g>
			<g>
				<line class="st6" x1="331.9" y1="24.6" x2="331.9" y2="26.7"/>
				<line class="st6" x1="333" y1="25.7" x2="330.9" y2="25.7"/>
			</g>
			<g>
				<line class="st6" x1="344.6" y1="24.6" x2="344.6" y2="26.7"/>
				<line class="st6" x1="345.6" y1="25.7" x2="343.6" y2="25.7"/>
			</g>
			<g>
				<line class="st6" x1="357.3" y1="24.6" x2="357.3" y2="26.7"/>
				<line class="st6" x1="358.3" y1="25.7" x2="356.3" y2="25.7"/>
			</g>
			<g>
				<line class="st6" x1="370" y1="24.6" x2="370" y2="26.7"/>
				<line class="st6" x1="371" y1="25.7" x2="368.9" y2="25.7"/>
			</g>
		</g>
		<g>
			<g>
				<line class="st6" x1="255.9" y1="37.3" x2="255.9" y2="39.4"/>
				<line class="st6" x1="256.9" y1="38.3" x2="254.8" y2="38.3"/>
			</g>
			<g>
				<line class="st6" x1="268.6" y1="37.3" x2="268.6" y2="39.4"/>
				<line class="st6" x1="269.6" y1="38.3" x2="267.5" y2="38.3"/>
			</g>
			<g>
				<line class="st6" x1="281.2" y1="37.3" x2="281.2" y2="39.4"/>
				<line class="st6" x1="282.3" y1="38.3" x2="280.2" y2="38.3"/>
			</g>
			<g>
				<line class="st6" x1="293.9" y1="37.3" x2="293.9" y2="39.4"/>
				<line class="st6" x1="294.9" y1="38.3" x2="292.9" y2="38.3"/>
			</g>
			<g>
				<line class="st6" x1="306.6" y1="37.3" x2="306.6" y2="39.4"/>
				<line class="st6" x1="307.6" y1="38.3" x2="305.5" y2="38.3"/>
			</g>
			<g>
				<line class="st6" x1="319.3" y1="37.3" x2="319.3" y2="39.4"/>
				<line class="st6" x1="320.3" y1="38.3" x2="318.2" y2="38.3"/>
			</g>
			<g>
				<line class="st6" x1="331.9" y1="37.3" x2="331.9" y2="39.4"/>
				<line class="st6" x1="333" y1="38.3" x2="330.9" y2="38.3"/>
			</g>
			<g>
				<line class="st6" x1="344.6" y1="37.3" x2="344.6" y2="39.4"/>
				<line class="st6" x1="345.6" y1="38.3" x2="343.6" y2="38.3"/>
			</g>
			<g>
				<line class="st6" x1="357.3" y1="37.3" x2="357.3" y2="39.4"/>
				<line class="st6" x1="358.3" y1="38.3" x2="356.3" y2="38.3"/>
			</g>
			<g>
				<line class="st6" x1="370" y1="37.3" x2="370" y2="39.4"/>
				<line class="st6" x1="371" y1="38.3" x2="368.9" y2="38.3"/>
			</g>
		</g>
		<g>
			<g>
				<line class="st6" x1="255.9" y1="50" x2="255.9" y2="52"/>
				<line class="st6" x1="256.9" y1="51" x2="254.8" y2="51"/>
			</g>
			<g>
				<line class="st6" x1="268.6" y1="50" x2="268.6" y2="52"/>
				<line class="st6" x1="269.6" y1="51" x2="267.5" y2="51"/>
			</g>
			<g>
				<line class="st6" x1="281.2" y1="50" x2="281.2" y2="52"/>
				<line class="st6" x1="282.3" y1="51" x2="280.2" y2="51"/>
			</g>
			<g>
				<line class="st6" x1="293.9" y1="50" x2="293.9" y2="52"/>
				<line class="st6" x1="294.9" y1="51" x2="292.9" y2="51"/>
			</g>
			<g>
				<line class="st6" x1="306.6" y1="50" x2="306.6" y2="52"/>
				<line class="st6" x1="307.6" y1="51" x2="305.5" y2="51"/>
			</g>
			<g>
				<line class="st6" x1="319.3" y1="50" x2="319.3" y2="52"/>
				<line class="st6" x1="320.3" y1="51" x2="318.2" y2="51"/>
			</g>
			<g>
				<line class="st6" x1="331.9" y1="50" x2="331.9" y2="52"/>
				<line class="st6" x1="333" y1="51" x2="330.9" y2="51"/>
			</g>
			<g>
				<line class="st6" x1="344.6" y1="50" x2="344.6" y2="52"/>
				<line class="st6" x1="345.6" y1="51" x2="343.6" y2="51"/>
			</g>
			<g>
				<line class="st6" x1="357.3" y1="50" x2="357.3" y2="52"/>
				<line class="st6" x1="358.3" y1="51" x2="356.3" y2="51"/>
			</g>
			<g>
				<line class="st6" x1="370" y1="50" x2="370" y2="52"/>
				<line class="st6" x1="371" y1="51" x2="368.9" y2="51"/>
			</g>
		</g>
		<g>
			<g>
				<line class="st6" x1="255.9" y1="62.7" x2="255.9" y2="64.7"/>
				<line class="st6" x1="256.9" y1="63.7" x2="254.8" y2="63.7"/>
			</g>
			<g>
				<line class="st6" x1="268.6" y1="62.7" x2="268.6" y2="64.7"/>
				<line class="st6" x1="269.6" y1="63.7" x2="267.5" y2="63.7"/>
			</g>
			<g>
				<line class="st6" x1="281.2" y1="62.7" x2="281.2" y2="64.7"/>
				<line class="st6" x1="282.3" y1="63.7" x2="280.2" y2="63.7"/>
			</g>
			<g>
				<line class="st6" x1="293.9" y1="62.7" x2="293.9" y2="64.7"/>
				<line class="st6" x1="294.9" y1="63.7" x2="292.9" y2="63.7"/>
			</g>
			<g>
				<line class="st6" x1="306.6" y1="62.7" x2="306.6" y2="64.7"/>
				<line class="st6" x1="307.6" y1="63.7" x2="305.5" y2="63.7"/>
			</g>
			<g>
				<line class="st6" x1="319.3" y1="62.7" x2="319.3" y2="64.7"/>
				<line class="st6" x1="320.3" y1="63.7" x2="318.2" y2="63.7"/>
			</g>
			<g>
				<line class="st6" x1="331.9" y1="62.7" x2="331.9" y2="64.7"/>
				<line class="st6" x1="333" y1="63.7" x2="330.9" y2="63.7"/>
			</g>
			<g>
				<line class="st6" x1="344.6" y1="62.7" x2="344.6" y2="64.7"/>
				<line class="st6" x1="345.6" y1="63.7" x2="343.6" y2="63.7"/>
			</g>
			<g>
				<line class="st6" x1="357.3" y1="62.7" x2="357.3" y2="64.7"/>
				<line class="st6" x1="358.3" y1="63.7" x2="356.3" y2="63.7"/>
			</g>
			<g>
				<line class="st6" x1="370" y1="62.7" x2="370" y2="64.7"/>
				<line class="st6" x1="371" y1="63.7" x2="368.9" y2="63.7"/>
			</g>
		</g>
		<g>
			<g>
				<line class="st6" x1="255.9" y1="75.3" x2="255.9" y2="77.4"/>
				<line class="st6" x1="256.9" y1="76.4" x2="254.8" y2="76.4"/>
			</g>
			<g>
				<line class="st6" x1="268.6" y1="75.3" x2="268.6" y2="77.4"/>
				<line class="st6" x1="269.6" y1="76.4" x2="267.5" y2="76.4"/>
			</g>
			<g>
				<line class="st6" x1="281.2" y1="75.3" x2="281.2" y2="77.4"/>
				<line class="st6" x1="282.3" y1="76.4" x2="280.2" y2="76.4"/>
			</g>
			<g>
				<line class="st6" x1="293.9" y1="75.3" x2="293.9" y2="77.4"/>
				<line class="st6" x1="294.9" y1="76.4" x2="292.9" y2="76.4"/>
			</g>
			<g>
				<line class="st6" x1="306.6" y1="75.3" x2="306.6" y2="77.4"/>
				<line class="st6" x1="307.6" y1="76.4" x2="305.5" y2="76.4"/>
			</g>
			<g>
				<line class="st6" x1="319.3" y1="75.3" x2="319.3" y2="77.4"/>
				<line class="st6" x1="320.3" y1="76.4" x2="318.2" y2="76.4"/>
			</g>
			<g>
				<line class="st6" x1="331.9" y1="75.3" x2="331.9" y2="77.4"/>
				<line class="st6" x1="333" y1="76.4" x2="330.9" y2="76.4"/>
			</g>
			<g>
				<line class="st6" x1="344.6" y1="75.3" x2="344.6" y2="77.4"/>
				<line class="st6" x1="345.6" y1="76.4" x2="343.6" y2="76.4"/>
			</g>
			<g>
				<line class="st6" x1="357.3" y1="75.3" x2="357.3" y2="77.4"/>
				<line class="st6" x1="358.3" y1="76.4" x2="356.3" y2="76.4"/>
			</g>
			<g>
				<line class="st6" x1="370" y1="75.3" x2="370" y2="77.4"/>
				<line class="st6" x1="371" y1="76.4" x2="368.9" y2="76.4"/>
			</g>
		</g>
		<g>
			<g>
				<line class="st6" x1="255.9" y1="88" x2="255.9" y2="90.1"/>
				<line class="st6" x1="256.9" y1="89" x2="254.8" y2="89"/>
			</g>
			<g>
				<line class="st6" x1="268.6" y1="88" x2="268.6" y2="90.1"/>
				<line class="st6" x1="269.6" y1="89" x2="267.5" y2="89"/>
			</g>
			<g>
				<line class="st6" x1="281.2" y1="88" x2="281.2" y2="90.1"/>
				<line class="st6" x1="282.3" y1="89" x2="280.2" y2="89"/>
			</g>
			<g>
				<line class="st6" x1="293.9" y1="88" x2="293.9" y2="90.1"/>
				<line class="st6" x1="294.9" y1="89" x2="292.9" y2="89"/>
			</g>
			<g>
				<line class="st6" x1="306.6" y1="88" x2="306.6" y2="90.1"/>
				<line class="st6" x1="307.6" y1="89" x2="305.5" y2="89"/>
			</g>
			<g>
				<line class="st6" x1="319.3" y1="88" x2="319.3" y2="90.1"/>
				<line class="st6" x1="320.3" y1="89" x2="318.2" y2="89"/>
			</g>
			<g>
				<line class="st6" x1="331.9" y1="88" x2="331.9" y2="90.1"/>
				<line class="st6" x1="333" y1="89" x2="330.9" y2="89"/>
			</g>
			<g>
				<line class="st6" x1="344.6" y1="88" x2="344.6" y2="90.1"/>
				<line class="st6" x1="345.6" y1="89" x2="343.6" y2="89"/>
			</g>
			<g>
				<line class="st6" x1="357.3" y1="88" x2="357.3" y2="90.1"/>
				<line class="st6" x1="358.3" y1="89" x2="356.3" y2="89"/>
			</g>
			<g>
				<line class="st6" x1="370" y1="88" x2="370" y2="90.1"/>
				<line class="st6" x1="371" y1="89" x2="368.9" y2="89"/>
			</g>
		</g>
		<g>
			<g>
				<line class="st6" x1="255.9" y1="100.7" x2="255.9" y2="102.8"/>
				<line class="st6" x1="256.9" y1="101.7" x2="254.8" y2="101.7"/>
			</g>
			<g>
				<line class="st6" x1="268.6" y1="100.7" x2="268.6" y2="102.8"/>
				<line class="st6" x1="269.6" y1="101.7" x2="267.5" y2="101.7"/>
			</g>
			<g>
				<line class="st6" x1="281.2" y1="100.7" x2="281.2" y2="102.8"/>
				<line class="st6" x1="282.3" y1="101.7" x2="280.2" y2="101.7"/>
			</g>
			<g>
				<line class="st6" x1="293.9" y1="100.7" x2="293.9" y2="102.8"/>
				<line class="st6" x1="294.9" y1="101.7" x2="292.9" y2="101.7"/>
			</g>
			<g>
				<line class="st6" x1="306.6" y1="100.7" x2="306.6" y2="102.8"/>
				<line class="st6" x1="307.6" y1="101.7" x2="305.5" y2="101.7"/>
			</g>
			<g>
				<line class="st6" x1="319.3" y1="100.7" x2="319.3" y2="102.8"/>
				<line class="st6" x1="320.3" y1="101.7" x2="318.2" y2="101.7"/>
			</g>
			<g>
				<line class="st6" x1="331.9" y1="100.7" x2="331.9" y2="102.8"/>
				<line class="st6" x1="333" y1="101.7" x2="330.9" y2="101.7"/>
			</g>
			<g>
				<line class="st6" x1="344.6" y1="100.7" x2="344.6" y2="102.8"/>
				<line class="st6" x1="345.6" y1="101.7" x2="343.6" y2="101.7"/>
			</g>
			<g>
				<line class="st6" x1="357.3" y1="100.7" x2="357.3" y2="102.8"/>
				<line class="st6" x1="358.3" y1="101.7" x2="356.3" y2="101.7"/>
			</g>
			<g>
				<line class="st6" x1="370" y1="100.7" x2="370" y2="102.8"/>
				<line class="st6" x1="371" y1="101.7" x2="368.9" y2="101.7"/>
			</g>
		</g>
		<g>
			<g>
				<line class="st6" x1="255.9" y1="113.4" x2="255.9" y2="115.4"/>
				<line class="st6" x1="256.9" y1="114.4" x2="254.8" y2="114.4"/>
			</g>
			<g>
				<line class="st6" x1="268.6" y1="113.4" x2="268.6" y2="115.4"/>
				<line class="st6" x1="269.6" y1="114.4" x2="267.5" y2="114.4"/>
			</g>
			<g>
				<line class="st6" x1="281.2" y1="113.4" x2="281.2" y2="115.4"/>
				<line class="st6" x1="282.3" y1="114.4" x2="280.2" y2="114.4"/>
			</g>
			<g>
				<line class="st6" x1="293.9" y1="113.4" x2="293.9" y2="115.4"/>
				<line class="st6" x1="294.9" y1="114.4" x2="292.9" y2="114.4"/>
			</g>
			<g>
				<line class="st6" x1="306.6" y1="113.4" x2="306.6" y2="115.4"/>
				<line class="st6" x1="307.6" y1="114.4" x2="305.5" y2="114.4"/>
			</g>
			<g>
				<line class="st6" x1="319.3" y1="113.4" x2="319.3" y2="115.4"/>
				<line class="st6" x1="320.3" y1="114.4" x2="318.2" y2="114.4"/>
			</g>
			<g>
				<line class="st6" x1="331.9" y1="113.4" x2="331.9" y2="115.4"/>
				<line class="st6" x1="333" y1="114.4" x2="330.9" y2="114.4"/>
			</g>
			<g>
				<line class="st6" x1="344.6" y1="113.4" x2="344.6" y2="115.4"/>
				<line class="st6" x1="345.6" y1="114.4" x2="343.6" y2="114.4"/>
			</g>
			<g>
				<line class="st6" x1="357.3" y1="113.4" x2="357.3" y2="115.4"/>
				<line class="st6" x1="358.3" y1="114.4" x2="356.3" y2="114.4"/>
			</g>
			<g>
				<line class="st6" x1="370" y1="113.4" x2="370" y2="115.4"/>
				<line class="st6" x1="371" y1="114.4" x2="368.9" y2="114.4"/>
			</g>
		</g>
		<g>
			<g>
				<line class="st6" x1="255.9" y1="126" x2="255.9" y2="128.1"/>
				<line class="st6" x1="256.9" y1="127.1" x2="254.8" y2="127.1"/>
			</g>
			<g>
				<line class="st6" x1="268.6" y1="126" x2="268.6" y2="128.1"/>
				<line class="st6" x1="269.6" y1="127.1" x2="267.5" y2="127.1"/>
			</g>
			<g>
				<line class="st6" x1="281.2" y1="126" x2="281.2" y2="128.1"/>
				<line class="st6" x1="282.3" y1="127.1" x2="280.2" y2="127.1"/>
			</g>
			<g>
				<line class="st6" x1="293.9" y1="126" x2="293.9" y2="128.1"/>
				<line class="st6" x1="294.9" y1="127.1" x2="292.9" y2="127.1"/>
			</g>
			<g>
				<line class="st6" x1="306.6" y1="126" x2="306.6" y2="128.1"/>
				<line class="st6" x1="307.6" y1="127.1" x2="305.5" y2="127.1"/>
			</g>
			<g>
				<line class="st6" x1="319.3" y1="126" x2="319.3" y2="128.1"/>
				<line class="st6" x1="320.3" y1="127.1" x2="318.2" y2="127.1"/>
			</g>
			<g>
				<line class="st6" x1="331.9" y1="126" x2="331.9" y2="128.1"/>
				<line class="st6" x1="333" y1="127.1" x2="330.9" y2="127.1"/>
			</g>
			<g>
				<line class="st6" x1="344.6" y1="126" x2="344.6" y2="128.1"/>
				<line class="st6" x1="345.6" y1="127.1" x2="343.6" y2="127.1"/>
			</g>
			<g>
				<line class="st6" x1="357.3" y1="126" x2="357.3" y2="128.1"/>
				<line class="st6" x1="358.3" y1="127.1" x2="356.3" y2="127.1"/>
			</g>
			<g>
				<line class="st6" x1="370" y1="126" x2="370" y2="128.1"/>
				<line class="st6" x1="371" y1="127.1" x2="368.9" y2="127.1"/>
			</g>
		</g>
	</g>
	<g class="st1">
		<line class="st7" x1="34.8" y1="149.6" x2="44.8" y2="139.6"/>
		<line class="st7" x1="34.8" y1="156.6" x2="51.8" y2="139.6"/>
		<line class="st7" x1="34.6" y1="149.8" x2="44.8" y2="139.6"/>
		<line class="st7" x1="34.6" y1="142.8" x2="37.8" y2="139.6"/>
		<line class="st7" x1="34.8" y1="163.6" x2="58.8" y2="139.6"/>
		<line class="st7" x1="34.8" y1="170.5" x2="65.7" y2="139.6"/>
		<line class="st7" x1="37.3" y1="175" x2="72.7" y2="139.6"/>
		<line class="st7" x1="44.3" y1="175" x2="79.7" y2="139.6"/>
		<line class="st7" x1="51.2" y1="175" x2="86.7" y2="139.6"/>
		<line class="st7" x1="58.2" y1="175" x2="93.6" y2="139.6"/>
		<line class="st7" x1="65.2" y1="175" x2="100.6" y2="139.6"/>
		<line class="st7" x1="72.2" y1="175" x2="107.6" y2="139.6"/>
		<line class="st7" x1="79.1" y1="175" x2="114.6" y2="139.6"/>
		<line class="st7" x1="86.1" y1="175" x2="121.5" y2="139.6"/>
		<line class="st7" x1="93.1" y1="175" x2="128.5" y2="139.6"/>
		<line class="st7" x1="100.1" y1="175" x2="135.5" y2="139.6"/>
		<line class="st7" x1="107" y1="175" x2="142.4" y2="139.6"/>
		<line class="st7" x1="114" y1="175" x2="149.4" y2="139.6"/>
		<line class="st7" x1="121" y1="175" x2="156.4" y2="139.6"/>
		<line class="st7" x1="128" y1="175" x2="163.4" y2="139.6"/>
		<line class="st7" x1="134.9" y1="175" x2="170.3" y2="139.6"/>
		<line class="st7" x1="141.9" y1="175" x2="177.3" y2="139.6"/>
		<line class="st7" x1="148.9" y1="175" x2="184.3" y2="139.6"/>
		<line class="st7" x1="155.9" y1="175" x2="191.3" y2="139.6"/>
		<line class="st7" x1="162.8" y1="175" x2="197.2" y2="140.7"/>
		<line class="st7" x1="169.8" y1="175" x2="197.2" y2="147.6"/>
		<line class="st7" x1="176.8" y1="175" x2="197.2" y2="154.6"/>
		<line class="st7" x1="183.7" y1="175" x2="197.2" y2="161.6"/>
		<line class="st7" x1="190.7" y1="175" x2="197.2" y2="168.5"/>
	</g>
	<g class="st1">
		<rect x="23.3" y="146.2" class="st8" width="64" height="42.2"/>
		<g>
			<circle class="st9" cx="23.3" cy="188.4" r="10"/>
			<polygon class="st10" points="28.7,188.4 20.1,183.5 20.1,193.3 			"/>
		</g>
	</g>
	<g class="st1">
		<g>
			<line class="st11" x1="186.4" y1="13.9" x2="186.4" y2="8.7"/>
			<line class="st11" x1="184" y1="10" x2="184" y2="8.7"/>
			<line class="st11" x1="181.6" y1="10" x2="181.6" y2="8.7"/>
			<line class="st11" x1="179.2" y1="10" x2="179.2" y2="8.7"/>
			<line class="st11" x1="176.8" y1="11.3" x2="176.8" y2="8.7"/>
			<line class="st11" x1="174.4" y1="10" x2="174.4" y2="8.7"/>
			<line class="st11" x1="172.1" y1="10" x2="172.1" y2="8.7"/>
			<line class="st11" x1="169.7" y1="10" x2="169.7" y2="8.7"/>
			<line class="st11" x1="167.3" y1="13.9" x2="167.3" y2="8.7"/>
		</g>
		<g>
			<line class="st11" x1="167.3" y1="13.9" x2="167.3" y2="8.7"/>
			<line class="st11" x1="164.9" y1="10" x2="164.9" y2="8.7"/>
			<line class="st11" x1="162.5" y1="10" x2="162.5" y2="8.7"/>
			<line class="st11" x1="160.1" y1="10" x2="160.1" y2="8.7"/>
			<line class="st11" x1="157.7" y1="11.3" x2="157.7" y2="8.7"/>
			<line class="st11" x1="155.4" y1="10" x2="155.4" y2="8.7"/>
			<line class="st11" x1="153" y1="10" x2="153" y2="8.7"/>
			<line class="st11" x1="150.6" y1="10" x2="150.6" y2="8.7"/>
			<line class="st11" x1="148.2" y1="13.9" x2="148.2" y2="8.7"/>
		</g>
		<g>
			<line class="st11" x1="148.2" y1="13.9" x2="148.2" y2="8.7"/>
			<line class="st11" x1="145.8" y1="10" x2="145.8" y2="8.7"/>
			<line class="st11" x1="143.4" y1="10" x2="143.4" y2="8.7"/>
			<line class="st11" x1="141" y1="10" x2="141" y2="8.7"/>
			<line class="st11" x1="138.7" y1="11.3" x2="138.7" y2="8.7"/>
			<line class="st11" x1="136.3" y1="10" x2="136.3" y2="8.7"/>
			<line class="st11" x1="133.9" y1="10" x2="133.9" y2="8.7"/>
			<line class="st11" x1="131.5" y1="10" x2="131.5" y2="8.7"/>
			<line class="st11" x1="129.1" y1="13.9" x2="129.1" y2="8.7"/>
		</g>
		<g>
			<line class="st11" x1="129.1" y1="13.9" x2="129.1" y2="8.7"/>
			<line class="st11" x1="126.7" y1="10" x2="126.7" y2="8.7"/>
			<line class="st11" x1="124.3" y1="10" x2="124.3" y2="8.7"/>
			<line class="st11" x1="122" y1="10" x2="122" y2="8.7"/>
			<line class="st11" x1="119.6" y1="11.3" x2="119.6" y2="8.7"/>
			<line class="st11" x1="117.2" y1="10" x2="117.2" y2="8.7"/>
			<line class="st11" x1="114.8" y1="10" x2="114.8" y2="8.7"/>
			<line class="st11" x1="112.4" y1="10" x2="112.4" y2="8.7"/>
			<line class="st11" x1="110" y1="13.9" x2="110" y2="8.7"/>
		</g>
	</g>
	<g class="st1">
		<line class="st12" x1="210.7" y1="40.5" x2="218.6" y2="40.5"/>
		<line class="st12" x1="210.7" y1="42.9" x2="218.6" y2="42.9"/>
		<line class="st12" x1="210.7" y1="45.3" x2="218.6" y2="45.3"/>
	</g>
	<g class="st1">
		<line class="st13" x1="267.4" y1="93.7" x2="369.4" y2="195.7"/>
		<path class="st13" d="M213.1-3.9l71.5,71.5c11.9,11.9,11.9,31.2,0,43.1l0,0c-11.9,11.9-11.9,31.2,0,43.1"/>
		<g>
			<line class="st14" x1="284.6" y1="110.7" x2="296.5" y2="98.7"/>
			<circle class="st15" cx="296.5" cy="98.7" r="0.5"/>
		</g>
		<g>
			<line class="st14" x1="284.6" y1="110.7" x2="272.6" y2="122.6"/>
			<circle class="st15" cx="272.6" cy="122.6" r="0.5"/>
		</g>
		<rect x="283.2" y="109.3" class="st16" width="2.7" height="2.7"/>
		<rect x="283.2" y="66.2" class="st17" width="2.7" height="2.7"/>
		<circle class="st18" cx="263.1" cy="89.1" r="1.5"/>
		<g>
			<rect x="261.6" y="164.6" class="st19" width="6.8" height="6.8"/>
			<rect x="263.7" y="166.8" class="st20" width="6.8" height="6.8"/>
			<rect x="263.7" y="166.8" class="st21" width="4.6" height="4.6"/>
		</g>
		<circle class="st2" cx="263.1" cy="89.1" r="0.6"/>
	</g>
	<g class="st1">
		<g>
			<defs>
				<path id="SVGID_3_" d="M341.5,103.5c-2.6,0-5.2,0.2-7.7,0.6c-10.8,1.6-19,10-20.2,20.4c-2.2,18.8-2.2,37.5,0,56.3
					c1.2,10.4,9.5,18.8,20.2,20.4c5.6,0.8,11.2,0.8,16.8,0c10.8-1.6,19-10,20.2-20.4c2.2-18.8,2.2-37.5,0-56.3
					c-1.2-10.4-9.5-18.8-20.2-20.4c-2.6-0.4-5.2-0.6-7.7-0.6H341.5z"/>
			</defs>
			<clipPath id="SVGID_4_">
				<use xlink:href="#SVGID_3_"  style="overflow:visible;"/>
			</clipPath>
			<g class="st22">
				<line class="st7" x1="246.5" y1="180.3" x2="336.9" y2="89.8"/>
				<line class="st7" x1="246.5" y1="185.7" x2="342.4" y2="89.8"/>
				<line class="st7" x1="246.3" y1="180.4" x2="336.9" y2="89.8"/>
				<line class="st7" x1="246.3" y1="175" x2="331.5" y2="89.8"/>
				<line class="st7" x1="246.5" y1="191.2" x2="347.8" y2="89.8"/>
				<line class="st7" x1="246.5" y1="196.6" x2="353.3" y2="89.8"/>
				<line class="st7" x1="248.4" y1="200.1" x2="358.7" y2="89.8"/>
				<line class="st7" x1="253.9" y1="200.1" x2="364.2" y2="89.8"/>
				<line class="st7" x1="259.3" y1="200.1" x2="369.7" y2="89.8"/>
				<line class="st7" x1="264.8" y1="200.1" x2="375.1" y2="89.8"/>
				<line class="st7" x1="270.2" y1="200.1" x2="380.6" y2="89.8"/>
				<line class="st7" x1="275.7" y1="200.1" x2="386" y2="89.8"/>
				<line class="st7" x1="281.1" y1="200.1" x2="391.5" y2="89.8"/>
				<line class="st7" x1="286.6" y1="200.1" x2="396.9" y2="89.8"/>
				<line class="st7" x1="292.1" y1="200.1" x2="402.4" y2="89.8"/>
				<line class="st7" x1="297.5" y1="200.1" x2="407.8" y2="89.8"/>
				<line class="st7" x1="303" y1="200.1" x2="413.3" y2="89.8"/>
				<line class="st7" x1="308.4" y1="200.1" x2="418.7" y2="89.8"/>
				<line class="st7" x1="313.9" y1="200.1" x2="424.2" y2="89.8"/>
				<line class="st7" x1="319.3" y1="200.1" x2="429.6" y2="89.8"/>
				<line class="st7" x1="324.8" y1="200.1" x2="435.1" y2="89.8"/>
				<line class="st7" x1="330.2" y1="200.1" x2="440.5" y2="89.8"/>
				<line class="st7" x1="335.7" y1="200.1" x2="446" y2="89.8"/>
				<line class="st7" x1="341.1" y1="200.1" x2="451.4" y2="89.8"/>
				<line class="st7" x1="346.6" y1="200.1" x2="456.1" y2="90.6"/>
				<line class="st7" x1="352" y1="200.1" x2="456.1" y2="96.1"/>
				<line class="st7" x1="357.5" y1="200.1" x2="456.1" y2="101.5"/>
				<line class="st7" x1="362.9" y1="200.1" x2="456.1" y2="107"/>
				<line class="st7" x1="368.4" y1="200.1" x2="456.1" y2="112.4"/>
			</g>
		</g>
		<path class="st23" d="M336.2,99.2c-2.6,0-5.2,0.2-7.7,0.6c-10.8,1.6-19,10-20.2,20.4c-2.2,18.8-2.2,37.5,0,56.3
			c1.2,10.4,9.5,18.8,20.2,20.4c5.6,0.8,11.2,0.8,16.8,0c10.8-1.6,19-10,20.2-20.4c2.2-18.8,2.2-37.5,0-56.3
			c-1.2-10.4-9.5-18.8-20.2-20.4c-2.6-0.4-5.2-0.6-7.7-0.6H336.2z"/>
		<g>
			<g>
				<g>
					<path class="st5" d="M365.4,120.2c-1.2-10.4-9.5-18.8-20.2-20.4c-2.6-0.4-5.2-0.6-7.7-0.6v9.2c2,0.3,3.5,2,3.5,4.1v15.8
						c0,2.1-1.5,3.8-3.5,4.1v16c0,0.4-0.3,0.6-0.6,0.6c-0.4,0-0.6-0.3-0.6-0.6v-16c-2-0.3-3.5-2-3.5-4.1v-15.8
						c0-2.1,1.5-3.8,3.5-4.1v-9.2c-2.6,0-5.2,0.2-7.7,0.6c-10.8,1.6-19,10-20.2,20.4c-2.2,18.8-2.2,37.5,0,56.3
						c1.2,10.4,9.5,18.8,20.2,20.4c5.6,0.8,11.2,0.8,16.8,0c10.8-1.6,19-10,20.2-20.4C367.6,157.7,367.6,138.9,365.4,120.2z"/>
					<path class="st2" d="M336.8,197.9c-2.8,0-5.6-0.2-8.4-0.6c-10.9-1.6-19.4-10.2-20.6-20.7c-2.2-18.7-2.2-37.7,0-56.4
						c1.2-10.6,9.7-19.1,20.6-20.7c2.5-0.4,5.2-0.6,7.8-0.6l0.4,0v10l-0.3,0.1c-1.8,0.3-3.2,1.9-3.2,3.7v15.8c0,1.8,1.4,3.4,3.2,3.7
						l0.3,0.1v16.3c0,0.1,0.1,0.2,0.2,0.2s0.2-0.1,0.2-0.2V132l0.3-0.1c1.8-0.3,3.2-1.9,3.2-3.7v-15.8c0-1.8-1.4-3.4-3.2-3.7
						l-0.3-0.1v-10l0.4,0c2.6,0,5.2,0.2,7.8,0.6c10.9,1.6,19.4,10.2,20.6,20.7c2.2,18.7,2.2,37.7,0,56.4
						c-1.2,10.6-9.7,19.1-20.6,20.7C342.4,197.7,339.6,197.9,336.8,197.9z M335.7,99.6c-2.4,0-4.9,0.2-7.3,0.6
						c-10.5,1.6-18.7,9.8-19.9,20c-2.2,18.7-2.2,37.6,0,56.2c1.2,10.2,9.4,18.4,19.9,20c5.5,0.8,11.1,0.8,16.6,0
						c10.5-1.6,18.7-9.8,19.9-20c2.2-18.7,2.2-37.6,0-56.2c-1.2-10.2-9.4-18.4-19.9-20c-2.4-0.4-4.8-0.6-7.3-0.6v8.4
						c2,0.5,3.5,2.3,3.5,4.4v15.8c0,2.1-1.5,4-3.5,4.4v15.6c0,0.6-0.5,1.1-1.1,1.1s-1.1-0.5-1.1-1.1v-15.6c-2.1-0.5-3.5-2.3-3.5-4.4
						v-15.8c0-2.1,1.5-4,3.5-4.4V99.6z"/>
				</g>
				<path class="st24" d="M336.8,109.6c-1.6,0-2.9,1.3-2.9,2.9v15.8c0,1.6,1.3,2.9,2.9,2.9s2.9-1.3,2.9-2.9v-15.8
					C339.7,110.9,338.4,109.6,336.8,109.6z"/>
				<g>
					<line class="st6" x1="339.4" y1="128.3" x2="334.2" y2="128.3"/>
					<line class="st6" x1="339.4" y1="127.1" x2="334.2" y2="127.1"/>
					<line class="st6" x1="339.4" y1="125.8" x2="334.2" y2="125.8"/>
					<line class="st6" x1="339.4" y1="124.4" x2="334.2" y2="124.4"/>
					<line class="st6" x1="339.4" y1="122.9" x2="334.2" y2="122.9"/>
					<line class="st6" x1="339.4" y1="121.2" x2="334.2" y2="121.2"/>
					<line class="st6" x1="339.4" y1="129.3" x2="334.2" y2="129.3"/>
					<line class="st6" x1="338.9" y1="130.1" x2="334.8" y2="130.1"/>
				</g>
				<g>
					<line class="st6" x1="334.2" y1="115" x2="335.4" y2="115"/>
					<line class="st6" x1="334.2" y1="116.4" x2="336.1" y2="116.4"/>
					<line class="st6" x1="337.8" y1="116.4" x2="339.7" y2="116.4"/>
					<line class="st6" x1="334.2" y1="117.9" x2="339.4" y2="117.9"/>
					<line class="st6" x1="334.2" y1="119.6" x2="339.4" y2="119.6"/>
					<line class="st6" x1="336.8" y1="111.5" x2="339.4" y2="111.5"/>
					<line class="st6" x1="334.8" y1="110.7" x2="338.9" y2="110.7"/>
				</g>
			</g>
			<g>
				<g>
					<path class="st25" d="M357.9,174c0,0-9.5-10.6-21.1-10.6c-11.7,0-21.1,10.6-21.1,10.6s9.5,10.6,21.1,10.6
						C348.5,184.6,357.9,174,357.9,174z"/>
					<path class="st26" d="M319.2,182.7c3.8,3.1,10.2,6.6,17.6,6.6c7.3,0,13.7-3.4,17.5-6.6"/>
					<path class="st26" d="M350.4,163c-3.7-2.3-8.4-4.4-13.6-4.4c-11.7,0-21.1,10.6-21.1,10.6"/>
					<path class="st26" d="M353.6,165.2c-0.3-0.3-0.7-0.5-1.1-0.8"/>
					<path class="st26" d="M357.9,169.2c0,0-0.9-1.1-2.6-2.5"/>
					<path class="st25" d="M344.6,183.1c2.6-2.2,4.2-5.5,4.2-9.1c0-3.6-1.6-6.9-4.2-9.1"/>
					<path class="st25" d="M329,164.8c-2.6,2.2-4.2,5.5-4.2,9.1c0,3.6,1.6,6.9,4.2,9.1"/>
					<circle class="st27" cx="336.8" cy="174" r="7.1"/>
					<line class="st26" x1="315.7" y1="174" x2="314.2" y2="175.7"/>
					<line class="st26" x1="357.9" y1="174" x2="359.4" y2="175.7"/>
				</g>
				<line class="st28" x1="333.4" y1="170.5" x2="329.8" y2="166.9"/>
			</g>
		</g>
	</g>
	<g class="st1">
		<circle class="st13" cx="50.3" cy="50.2" r="37.1"/>
		<g>
			<line class="st29" x1="50.2" y1="13.1" x2="28.6" y2="13.1"/>
			<circle class="st30" cx="28.6" cy="13.1" r="0.7"/>
		</g>
		<g>
			<line class="st29" x1="87.4" y1="50.2" x2="87.4" y2="28.6"/>
			<circle class="st30" cx="87.4" cy="28.6" r="0.7"/>
		</g>
		<g>
			<line class="st29" x1="50.3" y1="13.1" x2="71.8" y2="13.1"/>
			<circle class="st30" cx="71.8" cy="13.1" r="0.7"/>
		</g>
		<rect x="85.6" y="48.4" class="st31" width="3.5" height="3.5"/>
		<g>
			<line class="st29" x1="13.2" y1="50.2" x2="13.2" y2="28.6"/>
			<circle class="st30" cx="13.2" cy="28.6" r="0.7"/>
		</g>
		<rect x="11.4" y="48.4" class="st31" width="3.5" height="3.5"/>
		<rect x="48.5" y="11.3" class="st32" width="3.5" height="3.5"/>
		<polygon class="st33" points="50.3,13.1 50.2,24 53.4,20.7 58,20.8 		"/>
	</g>
	<g class="st1">
		<rect x="11.4" y="121.8" class="st34" width="6.5" height="6.5"/>
		<path class="st35" d="M19.5,131.5h-3.2c-0.9,0-1.6-0.7-1.6-1.6v-3.2c0-0.9,0.7-1.6,1.6-1.6h3.2c0.9,0,1.6,0.7,1.6,1.6v3.2
			C21.2,130.8,20.5,131.5,19.5,131.5z"/>
		<path class="st35" d="M21.2,134.8L21.2,134.8c-1.8,0-3.3-1.5-3.3-3.3l0,0c0-1.8,1.5-3.3,3.3-3.3h0c1.8,0,3.3,1.5,3.3,3.3l0,0
			C24.4,133.3,23,134.8,21.2,134.8z"/>
	</g>
	<g class="st1">
		<path class="st2" d="M294.5,166.4l3.3-3.3c0.2-0.2,0.2-0.4,0-0.6l-1.6-1.6c-0.2-0.2-0.4-0.2-0.6,0l-3.3,3.3
			c-0.2,0.2-0.2,0.4,0,0.6l1.6,1.6C294.1,166.6,294.3,166.6,294.5,166.4z"/>
		<path class="st2" d="M293.3,162.5l0.5-0.5l1.7-1.7l-1.2-2.1c-0.3-0.5-0.7-0.9-1.3-1.1l-5.5-2.3c0-0.2-0.1-0.3-0.2-0.4
			c-0.3-0.3-0.8-0.3-1.1,0l0.5,0.5l0,0l3.8,3.8c0.1,0,0.2,0.1,0.3,0.1c0.2,0.2,0.2,0.5,0,0.7c-0.2,0.2-0.5,0.2-0.7,0
			c-0.1-0.1-0.1-0.2-0.1-0.3l-3.8-3.8h0l-0.5-0.5c-0.3,0.3-0.3,0.8,0,1.1c0.1,0.1,0.3,0.2,0.4,0.2l2.3,5.5c0.2,0.5,0.6,1,1.1,1.3
			l2.1,1.2l0,0L293.3,162.5z"/>
	</g>
</g>
</svg>
